<svg width="26" height="20" viewBox="0 0 26 20" fill="none" xmlns="http://www.w3.org/2000/svg">
<path d="M6.10845 13.6324H12.0368C12.0914 13.3046 12.2826 13.0314 12.5285 12.8128L12.7197 12.6762C13.0749 12.3757 13.5393 12.2118 14.0311 12.2118C14.3862 12.2118 14.7141 12.2937 15.0419 12.4577L15.5063 12.7308L16.8996 11.4742L14.8233 9.47984C14.4955 9.152 14.3316 8.68757 14.4135 8.22314C14.4955 7.75871 14.796 7.37624 15.2058 7.15769C15.5883 6.96645 15.9981 6.88449 16.4079 6.88449C16.845 6.88449 17.2548 6.99377 17.6646 7.18501L20.3145 8.49634L21.3527 7.56748V4.17987C21.3527 3.38761 20.697 2.75926 19.9321 2.75926H15.7795V1.66648C15.7795 0.737624 15.0146 0 14.113 0H11.9548C11.0259 0 10.2883 0.764944 10.2883 1.66648V2.73194H6.10845C5.31618 2.73194 4.68784 3.38761 4.68784 4.15255V12.1845C4.66052 13.004 5.31618 13.6324 6.10845 13.6324ZM11.6816 1.66648C11.6816 1.52989 11.7909 1.42061 11.9275 1.42061H14.0857C14.2223 1.42061 14.3316 1.52989 14.3316 1.66648V2.73194H11.6816V1.66648Z" fill="#F6B228"/>
<path d="M25.287 6.88452C24.3308 6.91184 23.4293 7.26699 22.719 7.89534L20.4788 9.86234L17.1458 8.22317C16.6814 8.00462 16.135 8.00462 15.6979 8.22317C15.5067 8.30513 15.4794 8.55101 15.6433 8.6876L18.5938 11.5561L15.6433 14.1515L14.4685 13.4958C14.1407 13.3046 13.7309 13.3592 13.4304 13.5778L13.2392 13.7144C13.1026 13.8237 13.1026 14.0422 13.2392 14.1242L14.851 15.3809C15.0969 15.5721 15.2881 15.818 15.4247 16.0912L16.3263 17.9216C16.4082 18.0855 16.5995 18.1128 16.7361 18.0035L16.9273 17.8669C17.2278 17.6211 17.3371 17.2386 17.2278 16.8834L16.8726 15.5994L20.0144 13.2499L22.1999 16.7468C22.3092 16.9107 22.5551 16.9381 22.6644 16.7742C22.9649 16.3644 23.0742 15.8453 22.9649 15.3535L22.036 11.7747L24.4128 9.99894C25.1778 9.42523 25.6968 8.60564 25.9154 7.7041C26.0247 7.26699 25.6968 6.88452 25.287 6.88452Z" fill="#F6B228"/>
<path d="M12.5282 16.1185L12.5008 16.1458C11.7905 16.583 11.0529 16.9927 10.288 17.3206C9.52303 17.6484 8.73077 17.8943 7.93851 18.0582C7.14624 18.2221 6.29934 18.2768 5.50708 18.1948C4.71481 18.1128 3.92255 17.9216 3.21225 17.5665C2.52926 17.2113 1.90091 16.6922 1.51844 16.0092C1.13597 15.3536 0.917415 14.5613 0.972054 13.7691C1.02669 12.9768 1.27257 12.1572 1.65504 11.4196C2.03751 10.682 2.55658 9.97166 3.13029 9.34331C3.23957 9.23403 3.23957 9.0428 3.13029 8.93352C3.02101 8.82424 2.82977 8.82424 2.7205 8.93352C2.06483 9.56187 1.4638 10.2722 0.999373 11.0644C0.507624 11.8567 0.152472 12.7582 0.043194 13.7144C-0.0934031 14.6706 0.0978328 15.7087 0.562263 16.583C1.02669 17.4845 1.76432 18.1948 2.61122 18.7139C3.45812 19.2329 4.4143 19.5335 5.34316 19.6974C6.29934 19.834 7.25552 19.834 8.2117 19.7247C9.16788 19.6154 10.0694 19.3695 10.971 19.069C11.8725 18.7685 12.7194 18.3587 13.539 17.9216C13.5663 17.9216 13.5663 17.8943 13.5936 17.8943C14.0581 17.5938 14.222 16.9927 13.9215 16.5283C13.6209 15.9819 13.0199 15.818 12.5282 16.1185Z" fill="#F6B228"/>
</svg>
